# xmcd CD database file
#
# Track frame offsets:
#	150
#	23955
#	43971
#	65731
#	82354
#	111882
#	123001
#	135155
#	155881
#	187346
#	212531
#	230812
#
# Disc length: 3197 seconds
#
# Revision: 0
# Processed by: cddbd v1.5.2PL0 Copyright (c) Steve Scherf et al.
# Submitted via: CDex 1.70beta2
#
DISCID=b60c7b0c
DTITLE=Lara Iacovini - Everybody's Song
DYEAR=1900
DGENRE=Jazz
TTITLE0=Everybody's song but not my own
TTITLE1=It's De-lovely
TTITLE2=You must believe in spring
TTITLE3=Ladies in mercedes
TTITLE4=Kind folk
TTITLE5=The best is yet to come
TTITLE6=Negli occhi
TTITLE7=JoySpring
TTITLE8=Solitariamente Insieme
TTITLE9=Easy to love
TTITLE10=I'll never fall in love again
TTITLE11=Negli occhi
EXTD=
EXTT0=
EXTT1=
EXTT2=
EXTT3=
EXTT4=
EXTT5=
EXTT6=
EXTT7=
EXTT8=
EXTT9=
EXTT10=
EXTT11=
PLAYORDER=
